<?xml version="1.0" encoding="UTF-8" standalone="no"?>
<svg
   xmlns:dc="http://purl.org/dc/elements/1.1/"
   xmlns:cc="http://creativecommons.org/ns#"
   xmlns:rdf="http://www.w3.org/1999/02/22-rdf-syntax-ns#"
   xmlns:svg="http://www.w3.org/2000/svg"
   xmlns="http://www.w3.org/2000/svg"
   viewBox="0 0 1056 384"
   height="384"
   width="1056"
   xml:space="preserve"
   id="svg2"
   version="1.1"><metadata
     id="metadata8"><rdf:RDF><cc:Work
         rdf:about=""><dc:format>image/svg+xml</dc:format><dc:type
           rdf:resource="http://purl.org/dc/dcmitype/StillImage" /></cc:Work></rdf:RDF></metadata><defs
     id="defs6"><clipPath
       id="clipPath18"
       clipPathUnits="userSpaceOnUse"><path
         id="path16"
         d="M 0,288 H 792 V 0 H 0 Z" /></clipPath></defs><g
     transform="matrix(1.3333333,0,0,-1.3333333,0,384)"
     id="g10"><g
       id="g12"><g
         clip-path="url(#clipPath18)"
         id="g14"><g
           transform="translate(690.9123,123.05)"
           id="g20"><path
             id="path22"
             style="fill:#000000;fill-opacity:1;fill-rule:evenodd;stroke:none"
             d="m 0,0 c 18.515,0 28.573,10.058 28.573,23.316 0,14.058 -10.858,19.315 -26.516,22.973 -12.915,3.086 -19.658,5.6 -19.658,12.915 0,6.286 6.171,11.886 14.972,11.886 8.001,0 15.887,-3.543 22.516,-9.6 l 6.629,8.686 c -7.543,6.629 -16.573,11.086 -28.688,11.086 -15.772,0 -27.202,-9.943 -27.202,-23.087 0,-14.172 10.63,-18.972 26.631,-22.744 13.144,-2.972 19.658,-5.829 19.658,-13.258 0,-6.286 -5.6,-12.001 -16.458,-12.001 -10.629,0 -18.858,4.343 -25.83,10.972 l -6.972,-8.572 C -24.002,4.572 -13.144,0 0,0 m -114.865,1.257 h 11.544 V 60.804 L -58.175,1.257 h 11.543 v 78.52 H -58.175 V 20.23 l -45.146,59.547 h -11.544 z m -15.886,67.776 V 79.777 H -188.47 V 1.257 h 57.719 v 10.744 h -46.061 v 23.887 h 41.603 v 10.744 h -41.603 v 22.401 z m -70.519,0 v 10.744 h -57.719 V 1.257 h 11.658 v 34.174 h 41.603 v 10.743 h -41.603 v 22.859 z m -70.519,0 v 10.744 h -57.718 V 1.257 h 11.658 v 34.174 h 41.602 v 10.743 h -41.602 v 22.859 z m -72.233,0 v 10.744 h -57.719 V 1.257 h 57.719 v 10.744 h -46.061 v 23.887 h 41.603 v 10.744 h -41.603 V 69.033 Z M -452.258,1.257 h 11.543 v 67.776 h 25.831 v 10.744 h -63.09 V 69.033 h 25.716 z M -516.834,0 c 18.516,0 28.573,10.058 28.573,23.316 0,14.058 -10.857,19.315 -26.516,22.973 -12.915,3.086 -19.658,5.6 -19.658,12.915 0,6.286 6.172,11.886 14.972,11.886 8.001,0 15.887,-3.543 22.516,-9.6 l 6.629,8.686 c -7.543,6.629 -16.573,11.086 -28.687,11.086 -15.773,0 -27.202,-9.943 -27.202,-23.087 0,-14.172 10.629,-18.972 26.63,-22.744 13.144,-2.972 19.658,-5.829 19.658,-13.258 0,-6.286 -5.6,-12.001 -16.458,-12.001 -10.629,0 -18.858,4.343 -25.83,10.972 l -6.972,-8.572 C -540.836,4.572 -529.978,0 -516.834,0" /></g><g
           transform="translate(500.7084,88.5609)"
           id="g24"><path
             id="path26"
             style="fill:#ff5f1f;fill-opacity:1;fill-rule:evenodd;stroke:none"
             d="M 0,0 V 4.091 H -21.977 V -25.807 H 0 v 4.091 h -17.538 v 9.096 h 15.841 v 4.09 H -17.538 V 0 Z m -60.776,-25.807 h 4.396 V 0 h 9.835 V 4.091 H -70.567 V 0 h 9.791 z m -56.684,0 h 4.395 v 8.748 l 4.352,4.656 10.662,-13.404 h 5.527 l -13.099,16.45 12.272,13.448 h -5.614 l -14.1,-15.58 v 15.58 h -4.395 z M -143.029,0 v 4.091 h -21.977 v -29.898 h 21.977 v 4.091 h -17.538 v 9.096 h 15.841 v 4.09 h -15.841 V 0 Z m -57.99,-26.329 c 5.701,0 9.704,4.265 9.704,10.27 v 20.15 h -4.395 v -19.976 c 0,-3.785 -2.307,-6.44 -5.527,-6.44 -2.524,0 -5.092,1.654 -6.18,3.96 l -3.089,-3.003 c 1.914,-2.916 5.831,-4.961 9.487,-4.961 m -47.546,4.047 c -5.962,0 -11.01,5.223 -11.01,11.446 0,6.18 5.048,11.402 11.01,11.402 5.962,0 10.966,-5.222 10.966,-11.402 0,-6.223 -5.004,-11.446 -10.966,-11.446 m 0,-4.047 c 8.399,0 15.449,7.094 15.449,15.493 0,8.399 -7.05,15.449 -15.449,15.449 -8.399,0 -15.536,-7.05 -15.536,-15.449 0,-8.399 7.137,-15.493 15.536,-15.493 M -306.773,0 h 7.572 c 4.309,0 7.224,-2.133 7.224,-5.657 0,-3.526 -2.915,-5.658 -7.224,-5.658 h -7.572 z m 19.279,-5.657 c 0,5.7 -4.787,9.748 -11.097,9.748 h -12.577 v -29.898 h 4.395 v 10.401 h 6.876 l 7.311,-10.401 h 5.048 l -7.615,10.836 c 4.526,1.176 7.659,4.701 7.659,9.314 m -67.086,-5.658 V 0 h 7.572 c 4.309,0 7.224,-2.133 7.224,-5.657 0,-3.526 -2.915,-5.658 -7.224,-5.658 z m -4.395,-14.492 h 4.395 v 10.401 h 8.182 c 6.31,0 11.097,4.048 11.097,9.749 0,5.7 -4.787,9.748 -11.097,9.748 h -12.577 z" /></g><path
           id="path28"
           style="fill:#ff5f1f;fill-opacity:1;fill-rule:evenodd;stroke:none"
           d="m 72.516,212.355 h 4.966 V 75.645 h -4.966 z" /><path
           id="path30"
           style="fill:#ff5f1f;fill-opacity:1;fill-rule:evenodd;stroke:none"
           d="m 86.449,256.375 h 4.965 V 31.624 h -4.965 z" /><path
           id="path32"
           style="fill:#ff5f1f;fill-opacity:1;fill-rule:evenodd;stroke:none"
           d="m 100.381,212.355 h 4.965 V 75.645 h -4.965 z" /></g></g></g></svg>