<svg width="52" height="52" viewBox="0 0 52 52" fill="none" xmlns="http://www.w3.org/2000/svg">
<path d="M28.4814 2C28.4814 2 34.3892 2.53705 41.9078 10.0558C49.4264 17.5745 49.9636 23.4822 49.9636 23.4822" stroke="white" stroke-width="3.79754" stroke-linecap="round"/>
<path d="M30.2705 10.9512C30.2705 10.9512 32.7769 11.6673 36.5362 15.4266C40.2955 19.186 41.0117 21.6923 41.0117 21.6923" stroke="white" stroke-width="3.79754" stroke-linecap="round"/>
<path d="M15.4326 39.1162C24.7038 48.3985 33.3126 49.5953 37.7275 49.459L37.8525 50.7207C33.1597 50.8837 24.1347 49.6334 14.5137 39.9883L15.0566 39.4746L15.4326 39.1162ZM41.9209 49.4951C41.4454 49.8526 40.9243 50.1481 40.3604 50.3525L40.2305 49.04C40.4912 48.9223 40.7438 48.778 40.9873 48.6094L41.9209 49.4951ZM45.5918 45.7803L43.7383 47.7314L42.8213 46.8594L44.6738 44.9082L45.5918 45.7803ZM45.9873 35.9004C48.219 37.8953 48.7626 41.3155 47.2344 43.8477L46.877 43.5088L46.2871 42.9492C47.2785 41.0489 46.8972 38.5792 45.3389 37.0264L45.9873 35.9004ZM2.64355 15.7998C3.13753 20.1776 5.2997 28.0921 13.6865 37.2832L12.7686 38.1553C4.1316 28.6979 1.88572 20.4855 1.37891 15.8672L2.64355 15.7998ZM23.6582 30.457C26.868 33.6302 29.0266 34.6027 30.3301 34.8145C30.406 34.8268 30.4795 34.8343 30.5498 34.8418L31.6621 35.8984C31.7092 35.9432 31.7549 35.9866 31.7988 36.0283C31.3608 36.1331 30.8062 36.1737 30.127 36.0635C28.4519 35.7914 26.056 34.6139 22.7402 31.3291L23.6582 30.457ZM43.8604 34.5215L43.2285 35.6182L40.5859 34.0967L41.2178 33L43.8604 34.5215ZM34.2041 32.5117C35.6031 31.5848 37.338 31.3476 38.9541 31.8564L38.708 32.2861L38.3037 32.9873C37.2238 32.7204 36.1035 32.8738 35.1533 33.4131L34.2041 32.5117ZM16.7002 20.1465V20.1455L17.7197 21.1143C17.7261 21.2528 17.7391 21.4024 17.7627 21.5635C17.9674 22.9602 18.9021 25.2432 21.915 28.6211L20.9961 29.4932C17.8737 25.9998 16.7656 23.4863 16.5107 21.7471C16.4061 21.0325 16.445 20.4533 16.5459 20C16.5952 20.0468 16.6468 20.0958 16.7002 20.1465ZM19.8379 12.0908C20.6732 13.9743 20.5619 16.1608 19.5264 17.8848L18.5791 16.9854C19.2275 15.7375 19.3101 14.2103 18.7803 12.8389L19.8379 12.0908ZM2.72461 11.123L3.32617 11.6934C3.01666 12.1841 2.78512 12.711 2.6543 13.2637L1.83789 13.3076L1.34961 13.334C1.50747 12.4109 1.88152 11.5592 2.39258 10.8076L2.72461 11.123ZM18.4795 9.9502L17.4463 10.6807L15.7158 8.2334L16.2324 7.86719L16.749 7.50195L18.4795 9.9502ZM6.75195 6.98926V6.99023L7.21094 7.42578L4.98047 9.77344L4.52148 9.33789H4.52246L4.06348 8.90137L6.29297 6.55371L6.75195 6.98926ZM8.13965 4.81543C10.3193 3.36444 13.2193 3.66555 15.1836 5.50977L14.7715 5.80078L14.124 6.25781C12.6561 5.01615 10.6586 4.8287 9.08984 5.71875L8.13965 4.81543Z" fill="#FF5F1F" stroke="white" stroke-width="2.53169"/>
</svg>
